HIERARCHY
ROOT hip
{
  OFFSET 0.00112043 5.09927 -9.65472
  CHANNELS 6 Xposition Yposition Zposition Zrotation Xrotation Yrotation
  JOINT abdomen
  {
    OFFSET 0 -1.186 -1.5018
    CHANNELS 3 Zrotation Xrotation Yrotation
    JOINT abdomen2
    {
      OFFSET 0 9.964 0.2134
      CHANNELS 3 Zrotation Xrotation Yrotation
      JOINT chest
      {
        OFFSET 0 13.134 -3.2573
        CHANNELS 3 Zrotation Xrotation Yrotation
        JOINT neck
        {
          OFFSET 0 20.686 -1.6905
          CHANNELS 3 Zrotation Xrotation Yrotation
          JOINT head
          {
            OFFSET 0 7.238 -0.1237
            CHANNELS 3 Zrotation Xrotation Yrotation
            End Site
            {
              OFFSET 0 0 0
            }
          }
        }
        JOINT lCollar
        {
          OFFSET 1.7069 20.075 5.0056
          CHANNELS 3 Zrotation Xrotation Yrotation
          JOINT lShldr
          {
            OFFSET 13.6458 -0.047 -4.849
            CHANNELS 3 Zrotation Xrotation Yrotation
            JOINT lForeArm
            {
              OFFSET 28.3255 -0.9759 2.2888
              CHANNELS 3 Zrotation Xrotation Yrotation
              JOINT lHand
              {
                OFFSET 22.1583 -0.53 10.8316
                CHANNELS 3 Zrotation Xrotation Yrotation
                JOINT lThumb1
                {
                  OFFSET 0.786 0.112 2.5817
                  CHANNELS 3 Zrotation Xrotation Yrotation
                  JOINT lThumb2
                  {
                    OFFSET 0.3601 -0.878 4.2331
                    CHANNELS 3 Zrotation Xrotation Yrotation
                    JOINT lThumb2_End
                    {
                      OFFSET 1.8127 -1.216 2.2227
                      CHANNELS 3 Zrotation Xrotation Yrotation
                      End Site
                      {
                        OFFSET 0.0181 -0.0122 0.0222
                      }
                    }
                  }
                }
                JOINT lCarpal1
                {
                  OFFSET 0.9571 1.114 1.7695
                  CHANNELS 3 Zrotation Xrotation Yrotation
                  JOINT lIndex1
                  {
                    OFFSET 4.1246 0.487 4.1451
                    CHANNELS 3 Zrotation Xrotation Yrotation
                    JOINT lIndex2
                    {
                      OFFSET 3.4052 -1.454 2.7682
                      CHANNELS 3 Zrotation Xrotation Yrotation
                      JOINT lIndex2_End
                      {
                        OFFSET 1.4531 -1.795 1.2713
                        CHANNELS 3 Zrotation Xrotation Yrotation
                        End Site
                        {
                          OFFSET 0.0145 -0.0179 0.0127
                        }
                      }
                    }
                  }
                  JOINT lMid1
                  {
                    OFFSET 5.6954 0.21 2.1184
                    CHANNELS 3 Zrotation Xrotation Yrotation
                    JOINT lMid2
                    {
                      OFFSET 3.9766 -1.54 2.3863
                      CHANNELS 3 Zrotation Xrotation Yrotation
                      JOINT lMid2_End
                      {
                        OFFSET 1.4042 -1.926 1.125
                        CHANNELS 3 Zrotation Xrotation Yrotation
                        End Site
                        {
                          OFFSET 0.014 -0.0193 0.0113
                        }
                      }
                    }
                  }
                }
                JOINT lCarpal2
                {
                  OFFSET 2.0956 0.66 -0.3894
                  CHANNELS 3 Zrotation Xrotation Yrotation
                  JOINT lRing1
                  {
                    OFFSET 5.0395 -0.09 2.4971
                    CHANNELS 3 Zrotation Xrotation Yrotation
                    JOINT lRing2
                    {
                      OFFSET 3.7921 -1.552 1.4806
                      CHANNELS 3 Zrotation Xrotation Yrotation
                      JOINT lRing2_End
                      {
                        OFFSET 1.4655 -1.808 0.9609
                        CHANNELS 3 Zrotation Xrotation Yrotation
                        End Site
                        {
                          OFFSET 0.0147 -0.0181 0.0096
                        }
                      }
                    }
                  }
                  JOINT lPinky1
                  {
                    OFFSET 4.9141 -1.269 0.3591
                    CHANNELS 3 Zrotation Xrotation Yrotation
                    JOINT lPinky2
                    {
                      OFFSET 3.1477 -1.685 0.8462
                      CHANNELS 3 Zrotation Xrotation Yrotation
                      JOINT lPinky2_End
                      {
                        OFFSET 0.8055 -1.585 0.7955
                        CHANNELS 3 Zrotation Xrotation Yrotation
                        End Site
                        {
                          OFFSET 0.0081 -0.0158 0.008
                        }
                      }
                    }
                  }
                }
              }
            }
          }
        }
        JOINT rCollar
        {
          OFFSET -1.7069 20.075 5.0056
          CHANNELS 3 Zrotation Xrotation Yrotation
          JOINT rShldr
          {
            OFFSET -13.6458 -0.047 -4.849
            CHANNELS 3 Zrotation Xrotation Yrotation
            JOINT rForeArm
            {
              OFFSET -28.3255 -0.9759 2.2888
              CHANNELS 3 Zrotation Xrotation Yrotation
              JOINT rHand
              {
                OFFSET -22.1583 -0.53 10.8316
                CHANNELS 3 Zrotation Xrotation Yrotation
                JOINT rThumb1
                {
                  OFFSET -0.786 0.112 2.5817
                  CHANNELS 3 Zrotation Xrotation Yrotation
                  JOINT rThumb2
                  {
                    OFFSET -0.3601 -0.878 4.2331
                    CHANNELS 3 Zrotation Xrotation Yrotation
                    JOINT rThumb2_End
                    {
                      OFFSET -1.8127 -1.216 2.2227
                      CHANNELS 3 Zrotation Xrotation Yrotation
                      End Site
                      {
                        OFFSET -0.0181 -0.0122 0.0222
                      }
                    }
                  }
                }
                JOINT rCarpal1
                {
                  OFFSET -0.9571 1.114 1.7695
                  CHANNELS 3 Zrotation Xrotation Yrotation
                  JOINT rIndex1
                  {
                    OFFSET -4.1246 0.487 4.1451
                    CHANNELS 3 Zrotation Xrotation Yrotation
                    JOINT rIndex2
                    {
                      OFFSET -3.4052 -1.454 2.7682
                      CHANNELS 3 Zrotation Xrotation Yrotation
                      JOINT rIndex2_End
                      {
                        OFFSET -1.4531 -1.795 1.2713
                        CHANNELS 3 Zrotation Xrotation Yrotation
                        End Site
                        {
                          OFFSET -0.0145 -0.018 0.0127
                        }
                      }
                    }
                  }
                  JOINT rMid1
                  {
                    OFFSET -5.6954 0.21 2.1184
                    CHANNELS 3 Zrotation Xrotation Yrotation
                    JOINT rMid2
                    {
                      OFFSET -3.9766 -1.54 2.3863
                      CHANNELS 3 Zrotation Xrotation Yrotation
                      JOINT rMid2_End
                      {
                        OFFSET -1.4042 -1.926 1.125
                        CHANNELS 3 Zrotation Xrotation Yrotation
                        End Site
                        {
                          OFFSET -0.014 -0.0193 0.0113
                        }
                      }
                    }
                  }
                }
                JOINT rCarpal2
                {
                  OFFSET -2.0956 0.66 -0.3894
                  CHANNELS 3 Zrotation Xrotation Yrotation
                  JOINT rRing1
                  {
                    OFFSET -5.0395 -0.09 2.4971
                    CHANNELS 3 Zrotation Xrotation Yrotation
                    JOINT rRing2
                    {
                      OFFSET -3.7921 -1.552 1.4806
                      CHANNELS 3 Zrotation Xrotation Yrotation
                      JOINT rRing2_End
                      {
                        OFFSET -1.4655 -1.808 0.9609
                        CHANNELS 3 Zrotation Xrotation Yrotation
                        End Site
                        {
                          OFFSET -0.0147 -0.0181 0.0096
                        }
                      }
                    }
                  }
                  JOINT rPinky1
                  {
                    OFFSET -4.9141 -1.269 0.3592
                    CHANNELS 3 Zrotation Xrotation Yrotation
                    JOINT rPinky2
                    {
                      OFFSET -3.1477 -1.685 0.8462
                      CHANNELS 3 Zrotation Xrotation Yrotation
                      JOINT rPinky2_End
                      {
                        OFFSET -0.8055 -1.585 0.7955
                        CHANNELS 3 Zrotation Xrotation Yrotation
                        End Site
                        {
                          OFFSET -0.0081 -0.0158 0.008
                        }
                      }
                    }
                  }
                }
              }
            }
          }
        }
      }
    }
  }
  JOINT lThigh
  {
    OFFSET 8.367 -8.2066 0.5982
    CHANNELS 3 Zrotation Xrotation Yrotation
    JOINT lShin
    {
      OFFSET 2.1923 -43.463 -0.4932
      CHANNELS 3 Zrotation Xrotation Yrotation
      JOINT lFoot
      {
        OFFSET 0.7333 -45.8593 -2.6451
        CHANNELS 3 Zrotation Xrotation Yrotation
        End Site
        {
          OFFSET 2.6618 -4.2699 12.3931
        }
      }
    }
  }
  JOINT rThigh
  {
    OFFSET -8.367 -8.2066 0.5982
    CHANNELS 3 Zrotation Xrotation Yrotation
    JOINT rShin
    {
      OFFSET -2.1923 -43.463 -0.4931
      CHANNELS 3 Zrotation Xrotation Yrotation
      JOINT rFoot
      {
        OFFSET -0.7333 -45.8593 -2.6451
        CHANNELS 3 Zrotation Xrotation Yrotation
        End Site
        {
          OFFSET -2.6618 -4.2699 12.3931
        }
      }
    }
  }
}
MOTION
Frames:	4
Frame Time:	0.0333333
0 91.7903 2.51682 0 0 -0 0 0 -0 0 0 -0 0 0 -0 0 0 -0 0 0 -0 0 0 -0 1.66051 0.0835086 5.75766 -0.0175111 0.895433 15.7816 7.95139e-016 -1.98785e-016 -0 5.46658e-016 -3.97569e-016 -0 5.96354e-016 0 -0 3.97569e-016 1.98785e-016 9.54166e-015 1.49089e-016 -3.97569e-016 -0 6.4605e-016 0 3.18055e-015 5.96354e-016 0 3.18055e-015 8.94531e-016 -1.98785e-016 6.36111e-015 6.4605e-016 0 3.18055e-015 5.96354e-016 0 3.18055e-015 8.94531e-016 -1.98785e-016 6.36111e-015 1.49089e-016 -3.97569e-016 -0 6.4605e-016 0 3.18055e-015 5.96354e-016 0 3.18055e-015 8.94531e-016 -1.98785e-016 6.36111e-015 6.4605e-016 0 3.18055e-015 5.96354e-016 0 3.18055e-015 8.94531e-016 -1.98785e-016 6.36111e-015 0 0 -0 -1.4496 0.0636048 -5.0245 -1.74811 1.20616 -16.8394 -1.19271e-015 1.98785e-016 -3.18055e-015 -3.97569e-016 1.98785e-016 -3.18055e-015 -2.98177e-016 1.98785e-016 -3.18055e-015 -2.98177e-016 3.97569e-016 -0 4.96962e-016 0 -6.36111e-015 -9.93923e-017 3.97569e-016 -0 -8.94531e-016 5.96354e-016 -0 -3.97569e-016 3.97569e-016 -0 -9.93923e-017 3.97569e-016 -0 -8.94531e-016 5.96354e-016 -0 -3.97569e-016 3.97569e-016 -0 4.96962e-016 0 -6.36111e-015 -9.93923e-017 3.97569e-016 -0 -8.94531e-016 5.96354e-016 -0 -3.97569e-016 3.97569e-016 -0 -9.93923e-017 3.97569e-016 -0 -8.94531e-016 5.96354e-016 -0 -3.97569e-016 3.97569e-016 -0 -4.66111 -0.998717 0.12318 0.00986924 1.54847 0.176523 4.65186 -0.572283 -0.254274 4.66111 -0.998765 -0.123176 -0.00986867 1.54869 -0.176537 -4.65186 -0.572453 0.25427 
42.4583 -1.75038 43.5378 179.997 58.9881 3.99086e-011 0.555653 7.03726 -0.546577 1.19318 14.0684 -1.17597 1.19318 14.0684 -1.17597 3.24694e-006 13.9934 -1.70309e-006 1.75394e-007 0.134629 -3.9355e-007 -44.2408 -3.79164 1.02859 3.37079 55.3211 4.95414 6.26558 36.6221 9.24726 6.0249 9.4641 -5.62571 -0 -1.59028e-015 -0 0 0 -3.18055e-015 1.59028e-015 0 -0 -7.95139e-016 -1.59028e-015 -0 0 0 -0 0 0 -0 3.18055e-015 1.59028e-015 -0 0 0 -0 0 0 -0 3.18055e-015 1.59028e-015 -0 -7.95139e-016 -1.59028e-015 -0 0 0 -0 0 0 -0 3.18055e-015 1.59028e-015 -0 0 0 -0 0 0 -0 3.18055e-015 1.59028e-015 -0 47.7629 -3.53853 -13.8079 40.1384 -12.9325 60.7148 -55.7337 85.692 84.8977 0.650242 -30.0187 9.74584 3.18055e-015 -9.54166e-015 -0 4.77083e-015 -9.54166e-015 -0 4.77083e-015 -9.54166e-015 -0 -0 -3.18055e-015 -0 -1.59028e-015 -9.54166e-015 3.18055e-015 3.18055e-015 -1.27222e-014 -0 -3.18055e-015 -1.90833e-014 3.18055e-015 -1.59028e-015 -9.54166e-015 3.18055e-015 3.18055e-015 -1.27222e-014 -0 -3.18055e-015 -1.90833e-014 3.18055e-015 -0 -3.18055e-015 -0 -1.59028e-015 -9.54166e-015 3.18055e-015 3.18055e-015 -1.27222e-014 -0 -3.18055e-015 -1.90833e-014 3.18055e-015 -1.59028e-015 -9.54166e-015 3.18055e-015 3.18055e-015 -1.27222e-014 -0 -3.18055e-015 -1.90833e-014 3.18055e-015 57.3345 -55.0118 90.6355 121.389 46.3991 -114.176 26.1127 -1.24129 8.13578 -41.8994 -54.9161 -77.7366 -114.435 43.1852 129.891 -16.479 6.63439 -31.2521 
42.4624 -1.76333 43.3652 179.997 58.9977 1.17351e-010 0.554443 7.14817 -0.549672 1.1927 14.2902 -1.18366 1.1927 14.2902 -1.18366 1.3074e-005 14.382 -2.12216e-006 4.2298e-008 0.460281 4.15282e-007 -44.7215 -3.76844 0.316809 3.2077 55.3501 6.26298 6.60305 36.5467 8.61417 6.08621 8.92798 -5.57038 4.77083e-015 0 -3.18055e-015 1.59028e-015 1.59028e-015 -3.18055e-015 7.95139e-016 -1.59028e-015 -0 3.97569e-015 -1.59028e-015 -3.18055e-015 7.95139e-016 -1.59028e-015 6.36111e-015 2.38542e-015 1.59028e-015 -0 3.18055e-015 3.18055e-015 -0 7.95139e-016 -1.59028e-015 6.36111e-015 2.38542e-015 1.59028e-015 -0 3.18055e-015 3.18055e-015 -0 3.97569e-015 -1.59028e-015 -3.18055e-015 7.95139e-016 -1.59028e-015 6.36111e-015 2.38542e-015 1.59028e-015 -0 3.18055e-015 3.18055e-015 -0 7.95139e-016 -1.59028e-015 6.36111e-015 2.38542e-015 1.59028e-015 -0 3.18055e-015 3.18055e-015 -0 47.5939 -3.92929 -13.7804 40.2843 -12.914 61.3204 -64.8664 85.373 94.8292 0.190358 -30.1605 9.80771 1.76556e-031 -3.18055e-015 3.18055e-015 -0 0 3.18055e-015 3.18055e-015 -3.18055e-015 3.18055e-015 1.59028e-015 -3.18055e-015 3.18055e-015 1.59028e-015 -6.36111e-015 3.18055e-015 -1.59028e-015 0 -3.18055e-015 -7.95139e-015 0 6.36111e-015 1.59028e-015 -6.36111e-015 3.18055e-015 -1.59028e-015 0 -3.18055e-015 -7.95139e-015 0 6.36111e-015 1.59028e-015 -3.18055e-015 3.18055e-015 1.59028e-015 -6.36111e-015 3.18055e-015 -1.59028e-015 0 -3.18055e-015 -7.95139e-015 0 6.36111e-015 1.59028e-015 -6.36111e-015 3.18055e-015 -1.59028e-015 0 -3.18055e-015 -7.95139e-015 0 6.36111e-015 57.8805 -55.2033 91.1667 121.783 45.9903 -114.683 26.0896 -1.45068 8.06767 -42.2918 -55.0921 -78.0814 -114.451 43.1816 129.899 -16.4987 6.61087 -31.2618 
42.4665 -1.77819 43.1918 179.997 58.9977 -1.13208e-010 0.553229 7.25917 -0.552762 1.19223 14.5122 -1.19135 1.19223 14.5122 -1.19135 2.17005e-006 14.7712 -2.55842e-006 -3.01074e-007 0.785981 1.57429e-007 -45.2023 -3.73926 -0.395336 3.04308 55.377 7.57514 6.93936 36.4686 7.98199 6.14798 8.39174 -5.51454 -1.59028e-015 3.18055e-015 -3.18055e-015 -8.2563e-007 -1.91237e-007 -8.41351e-008 -8.2563e-007 -1.91237e-007 -8.41351e-008 -7.95139e-016 3.18055e-015 -3.18055e-015 -7.95139e-016 1.59028e-015 6.36111e-015 -8.2563e-007 -1.91237e-007 -8.41351e-008 -8.2563e-007 -1.91237e-007 -8.41351e-008 -7.95139e-016 1.59028e-015 6.36111e-015 -8.2563e-007 -1.91237e-007 -8.41351e-008 -8.2563e-007 -1.91237e-007 -8.41351e-008 -7.95139e-016 3.18055e-015 -3.18055e-015 -7.95139e-016 1.59028e-015 6.36111e-015 -8.2563e-007 -1.91237e-007 -8.41351e-008 -8.2563e-007 -1.91237e-007 -8.41351e-008 -7.95139e-016 1.59028e-015 6.36111e-015 -8.2563e-007 -1.91237e-007 -8.41351e-008 -8.2563e-007 -1.91237e-007 -8.41351e-008 47.425 -4.32023 -13.7541 40.4301 -12.8941 61.9262 -72.8998 84.9063 103.654 -0.270173 -30.3028 9.86835 -5.96645e-007 1.32168e-006 8.70976e-007 3.96279e-006 8.09358e-006 9.01561e-007 1.46747e-006 -1.48701e-006 2.96117e-006 9.54166e-015 0 3.18055e-015 -5.96645e-007 1.32168e-006 8.70976e-007 3.96279e-006 8.09358e-006 9.01561e-007 1.46747e-006 -1.48701e-006 2.96117e-006 -5.96645e-007 1.32168e-006 8.70976e-007 3.96279e-006 8.09358e-006 9.01561e-007 1.46747e-006 -1.48701e-006 2.96117e-006 9.54166e-015 0 3.18055e-015 -5.96645e-007 1.32168e-006 8.70976e-007 3.96279e-006 8.09358e-006 9.01561e-007 1.46747e-006 -1.48701e-006 2.96117e-006 -5.96645e-007 1.32168e-006 8.70976e-007 3.96279e-006 8.09358e-006 9.01561e-007 1.46747e-006 -1.48701e-006 2.96117e-006 58.4305 -55.3935 91.7026 122.171 45.5792 -115.181 26.0656 -1.65979 7.99999 -42.6881 -55.2672 -78.43 -114.467 43.1779 129.907 -16.5184 6.58723 -31.2718 
